<svg width="182" height="48" viewBox="0 0 182 48" fill="none" xmlns="http://www.w3.org/2000/svg">
<path d="M70.4805 20.7715C70.4805 21.0996 70.3633 21.375 70.1289 21.5977C69.9062 21.832 69.6309 21.9492 69.3027 21.9492H62.2715C62.0488 21.9609 61.8613 22.0137 61.709 22.1074C61.5684 22.1895 61.4629 22.2891 61.3926 22.4062C61.3223 22.5117 61.2871 22.623 61.2871 22.7402C61.2871 22.8574 61.3223 22.9746 61.3926 23.0918C61.4629 23.1973 61.5684 23.2969 61.709 23.3906C61.8613 23.4727 62.0488 23.5195 62.2715 23.5312H67.2637C68.084 23.5547 68.7578 23.748 69.2852 24.1113C69.8242 24.4629 70.2051 24.873 70.4277 25.3418C70.6621 25.7988 70.7793 26.2676 70.7793 26.748C70.7793 27.2168 70.6621 27.6855 70.4277 28.1543C70.1934 28.6113 69.8125 29.0215 69.2852 29.3848C68.7578 29.7363 68.084 29.9121 67.2637 29.9121H67.1582C67.0879 29.9238 67.0176 29.9297 66.9473 29.9297H60.3027C59.9746 29.9297 59.6934 29.8184 59.459 29.5957C59.2363 29.3613 59.125 29.0801 59.125 28.752C59.125 28.4238 59.2422 28.1484 59.4766 27.9258C59.6992 27.6914 59.9746 27.5742 60.3027 27.5742H67.3691C67.5918 27.5859 67.7734 27.5449 67.9141 27.4512C68.0664 27.3574 68.1777 27.252 68.248 27.1348C68.3184 27.0059 68.3535 26.877 68.3535 26.748C68.3535 26.666 68.3184 26.5547 68.248 26.4141C68.1777 26.2617 68.0664 26.1387 67.9141 26.0449C67.7734 25.9512 67.5918 25.8984 67.3691 25.8867H62.377C61.5566 25.8633 60.877 25.6758 60.3379 25.3242C59.8105 24.9727 59.4297 24.5742 59.1953 24.1289C58.9727 23.6719 58.8613 23.209 58.8613 22.7402C58.8613 22.2832 58.9785 21.832 59.2129 21.3867C59.4473 20.9297 59.8281 20.5254 60.3555 20.1738C60.8828 19.8223 61.5566 19.6348 62.377 19.6113H62.4824C62.5527 19.5996 62.623 19.5938 62.6934 19.5938H69.3027C69.6309 19.5938 69.9062 19.7109 70.1289 19.9453C70.3633 20.168 70.4805 20.4434 70.4805 20.7715ZM76.5625 19.3125C76.8906 19.3125 77.1719 19.4238 77.4062 19.6465C77.6406 19.8574 77.7637 20.127 77.7754 20.4551V21.9844H83.752C84.0801 21.9844 84.3613 22.0957 84.5957 22.3184C84.8184 22.5527 84.9297 22.834 84.9297 23.1621C84.9297 23.4902 84.8125 23.7715 84.5781 24.0059C84.3555 24.2285 84.0801 24.3398 83.752 24.3398H77.7754V24.6914C77.7637 25.1719 77.793 25.6172 77.8633 26.0273C77.9453 26.4258 78.1328 26.7832 78.4258 27.0996C78.7188 27.416 79.0879 27.5859 79.5332 27.6094H83.8223C84.1504 27.6211 84.4199 27.7441 84.6309 27.9785C84.8535 28.2129 84.9648 28.4941 84.9648 28.8223C84.9531 29.1387 84.8359 29.4082 84.6133 29.6309C84.4023 29.8418 84.1387 29.9531 83.8223 29.9648H78.9355C78.1152 29.918 77.4355 29.6426 76.8965 29.1387C76.3691 28.623 75.9883 27.9961 75.7539 27.2578C75.5312 26.5195 75.4141 25.7344 75.4023 24.9023V24.3398H73.3809C73.0527 24.3398 72.7773 24.2227 72.5547 23.9883C72.3203 23.7656 72.2031 23.4902 72.2031 23.1621C72.2031 22.834 72.3145 22.5586 72.5371 22.3359C72.7715 22.1016 73.0527 21.9844 73.3809 21.9844H75.4023V20.4551C75.4141 20.1387 75.5312 19.875 75.7539 19.6641C75.9766 19.4414 76.2461 19.3242 76.5625 19.3125ZM92.2598 30.2637C91.6504 30.2637 91.0469 30.1934 90.4492 30.0527C89.8633 29.9121 89.3008 29.707 88.7617 29.4375C88.2227 29.1562 87.748 28.7871 87.3379 28.3301C86.9277 27.873 86.7051 27.3281 86.6699 26.6953V25.957V22.9512C86.6699 22.623 86.7871 22.3535 87.0215 22.1426C87.2676 21.9199 87.5547 21.8086 87.8828 21.8086C88.5859 21.8672 88.9668 22.248 89.0254 22.9512V23.7246V26.1504C89.0488 26.5137 89.1836 26.8184 89.4297 27.0645C89.6875 27.2988 89.9688 27.4863 90.2734 27.627C90.5898 27.7676 90.9121 27.873 91.2402 27.9434C91.5801 28.0137 91.9199 28.0488 92.2598 28.0488C92.5996 28.0488 92.9336 28.0137 93.2617 27.9434C93.6016 27.873 93.9238 27.7676 94.2285 27.627C94.5449 27.4863 94.8262 27.2988 95.0723 27.0645C95.3301 26.8184 95.4707 26.5137 95.4941 26.1504V23.7246V22.9512C95.4941 22.623 95.6113 22.3535 95.8457 22.1426C96.0918 21.9199 96.3789 21.8086 96.707 21.8086C97.4102 21.8672 97.7969 22.248 97.8672 22.9512V25.957V26.6953C97.832 27.3281 97.6035 27.873 97.1816 28.3301C96.7715 28.7871 96.2969 29.1562 95.7578 29.4375C95.2188 29.707 94.6504 29.9121 94.0527 30.0527C93.4668 30.1934 92.8691 30.2637 92.2598 30.2637ZM109.908 20.4551C109.979 19.752 110.365 19.3711 111.068 19.3125C111.396 19.3125 111.678 19.4238 111.912 19.6465C112.158 19.8574 112.281 20.127 112.281 20.4551V28.8223C112.27 29.1504 112.146 29.4258 111.912 29.6484C111.678 29.8594 111.396 29.9648 111.068 29.9648H103.686C102.654 29.9297 101.875 29.6895 101.348 29.2441C100.82 28.7871 100.439 28.2773 100.205 27.7148C99.9707 27.1406 99.8535 26.5605 99.8535 25.9746C99.8535 25.3652 99.9648 24.7793 100.188 24.2168C100.422 23.6426 100.803 23.1328 101.33 22.6875C101.869 22.2305 102.549 21.9961 103.369 21.9844H107.799C108.127 21.9844 108.402 22.1016 108.625 22.3359C108.859 22.5586 108.977 22.834 108.977 23.1621C108.977 23.4902 108.859 23.7715 108.625 24.0059C108.402 24.2285 108.127 24.3398 107.799 24.3398H103.299C103.076 24.3398 102.883 24.4336 102.719 24.6211C102.555 24.7969 102.432 25.0078 102.35 25.2539C102.279 25.4883 102.244 25.7227 102.244 25.957C102.244 26.2031 102.279 26.4492 102.35 26.6953C102.432 26.9297 102.555 27.1406 102.719 27.3281C102.883 27.5039 103.076 27.5977 103.299 27.6094H109.451C109.756 27.5977 109.908 27.4453 109.908 27.1523V20.4551ZM125.764 23.0039C125.764 23.2969 125.646 23.543 125.412 23.7422C125.189 23.9297 124.914 24.0234 124.586 24.0234H117.15C116.998 24.0234 116.875 24.0527 116.781 24.1113C116.688 24.1699 116.617 24.2344 116.57 24.3047C116.523 24.3633 116.5 24.416 116.5 24.4629C116.5 24.5215 116.523 24.5859 116.57 24.6562C116.617 24.7148 116.688 24.7734 116.781 24.832C116.875 24.8789 116.998 24.9082 117.15 24.9199H122.898C123.637 24.9316 124.246 25.0781 124.727 25.3594C125.207 25.6289 125.547 25.9512 125.746 26.3262C125.957 26.6895 126.062 27.0586 126.062 27.4336C126.062 27.7969 125.957 28.166 125.746 28.541C125.535 28.9043 125.189 29.2266 124.709 29.5078C124.24 29.7773 123.637 29.9121 122.898 29.9121C122.77 29.9238 122.676 29.9297 122.617 29.9297H115.797C115.469 29.9297 115.188 29.8359 114.953 29.6484C114.73 29.4492 114.619 29.209 114.619 28.9277C114.619 28.6348 114.736 28.3887 114.971 28.1895C115.193 28.002 115.469 27.9082 115.797 27.9082H123.039C123.215 27.9199 123.355 27.8965 123.461 27.8379C123.578 27.7793 123.666 27.7148 123.725 27.6445C123.783 27.5742 123.812 27.5039 123.812 27.4336C123.812 27.3984 123.783 27.3398 123.725 27.2578C123.666 27.1641 123.578 27.0938 123.461 27.0469C123.355 26.9883 123.215 26.9531 123.039 26.9414H117.273C116.594 26.9297 116.031 26.7891 115.586 26.5195C115.141 26.2383 114.824 25.916 114.637 25.5527C114.449 25.1895 114.355 24.8262 114.355 24.4629C114.355 24.0996 114.449 23.7422 114.637 23.3906C114.836 23.0273 115.152 22.7168 115.586 22.459C116.031 22.1895 116.594 22.043 117.273 22.0195C117.391 22.0078 117.479 22.002 117.537 22.002H124.586C124.914 22.002 125.189 22.1016 125.412 22.3008C125.646 22.4883 125.764 22.7227 125.764 23.0039ZM131.828 19.3125C132.156 19.3125 132.438 19.4238 132.672 19.6465C132.906 19.8574 133.029 20.127 133.041 20.4551V21.9844H139.018C139.346 21.9844 139.627 22.0957 139.861 22.3184C140.084 22.5527 140.195 22.834 140.195 23.1621C140.195 23.4902 140.078 23.7715 139.844 24.0059C139.621 24.2285 139.346 24.3398 139.018 24.3398H133.041V24.6914C133.029 25.1719 133.059 25.6172 133.129 26.0273C133.211 26.4258 133.398 26.7832 133.691 27.0996C133.984 27.416 134.354 27.5859 134.799 27.6094H139.088C139.416 27.6211 139.686 27.7441 139.896 27.9785C140.119 28.2129 140.23 28.4941 140.23 28.8223C140.219 29.1387 140.102 29.4082 139.879 29.6309C139.668 29.8418 139.404 29.9531 139.088 29.9648H134.201C133.381 29.918 132.701 29.6426 132.162 29.1387C131.635 28.623 131.254 27.9961 131.02 27.2578C130.797 26.5195 130.68 25.7344 130.668 24.9023V24.3398H128.646C128.318 24.3398 128.043 24.2227 127.82 23.9883C127.586 23.7656 127.469 23.4902 127.469 23.1621C127.469 22.834 127.58 22.5586 127.803 22.3359C128.037 22.1016 128.318 21.9844 128.646 21.9844H130.668V20.4551C130.68 20.1387 130.797 19.875 131.02 19.6641C131.242 19.4414 131.512 19.3242 131.828 19.3125ZM145.557 29.9648C144.525 29.9297 143.746 29.6895 143.219 29.2441C142.691 28.7871 142.311 28.2773 142.076 27.7148C141.842 27.1406 141.725 26.5605 141.725 25.9746C141.725 25.3652 141.836 24.7793 142.059 24.2168C142.293 23.6426 142.674 23.1328 143.201 22.6875C143.74 22.2305 144.42 21.9961 145.24 21.9844H150.936C151.756 21.9961 152.43 22.2305 152.957 22.6875C153.496 23.1328 153.877 23.6426 154.1 24.2168C154.334 24.7793 154.451 25.3652 154.451 25.9746C154.451 26.5605 154.334 27.1406 154.1 27.7148C153.865 28.2773 153.484 28.7871 152.957 29.2441C152.43 29.6895 151.65 29.9297 150.619 29.9648H145.557ZM145.17 24.3398C144.947 24.3398 144.754 24.4336 144.59 24.6211C144.426 24.7969 144.303 25.0078 144.221 25.2539C144.15 25.4883 144.115 25.7227 144.115 25.957C144.115 26.2031 144.15 26.4492 144.221 26.6953C144.303 26.9297 144.426 27.1406 144.59 27.3281C144.754 27.5039 144.947 27.5977 145.17 27.6094H151.006C151.229 27.5977 151.422 27.5039 151.586 27.3281C151.75 27.1406 151.867 26.9297 151.938 26.6953C152.02 26.4492 152.061 26.2031 152.061 25.957C152.061 25.7227 152.02 25.4883 151.938 25.2539C151.867 25.0078 151.75 24.7969 151.586 24.6211C151.422 24.4336 151.229 24.3398 151.006 24.3398H145.17ZM162.08 21.7207C162.689 21.7207 163.287 21.791 163.873 21.9316C164.471 22.0723 165.039 22.2832 165.578 22.5645C166.117 22.834 166.592 23.1973 167.002 23.6543C167.424 24.1113 167.652 24.6562 167.688 25.2891V26.0273V29.0332C167.617 29.7363 167.23 30.1172 166.527 30.1758C166.199 30.1758 165.912 30.0703 165.666 29.8594C165.432 29.6367 165.314 29.3613 165.314 29.0332V28.2598V25.834C165.291 25.4707 165.15 25.1719 164.893 24.9375C164.646 24.6914 164.365 24.498 164.049 24.3574C163.744 24.2168 163.422 24.1113 163.082 24.041C162.754 23.9707 162.42 23.9355 162.08 23.9355C161.74 23.9355 161.4 23.9707 161.061 24.041C160.732 24.1113 160.41 24.2168 160.094 24.3574C159.789 24.498 159.508 24.6914 159.25 24.9375C159.004 25.1719 158.869 25.4707 158.846 25.834V28.2598V29.0332C158.787 29.7363 158.406 30.1172 157.703 30.1758C157.375 30.1758 157.088 30.0703 156.842 29.8594C156.607 29.6367 156.49 29.3613 156.49 29.0332V26.0273V25.2891C156.525 24.6562 156.748 24.1113 157.158 23.6543C157.568 23.1973 158.043 22.834 158.582 22.5645C159.121 22.2832 159.684 22.0723 160.27 21.9316C160.867 21.791 161.471 21.7207 162.08 21.7207ZM173.523 29.9648C172.492 29.9297 171.713 29.6895 171.186 29.2441C170.658 28.7871 170.277 28.2773 170.043 27.7148C169.809 27.1406 169.691 26.5605 169.691 25.9746C169.691 25.3652 169.803 24.7793 170.025 24.2168C170.26 23.6426 170.641 23.1328 171.168 22.6875C171.707 22.2305 172.387 21.9961 173.207 21.9844H179.887C180.215 21.9844 180.49 22.0957 180.713 22.3184C180.947 22.5293 181.064 22.7871 181.064 23.0918C181.064 23.4082 180.947 23.6777 180.713 23.9004C180.49 24.1113 180.215 24.2168 179.887 24.2168H173.312C173.055 24.2168 172.826 24.3047 172.627 24.4805C172.439 24.6562 172.299 24.8848 172.205 25.166C172.123 25.4473 172.082 25.7227 172.082 25.9922C172.082 26.2852 172.123 26.5723 172.205 26.8535C172.299 27.1348 172.439 27.3633 172.627 27.5391C172.826 27.7031 173.055 27.791 173.312 27.8027H179.887C180.215 27.8027 180.49 27.9082 180.713 28.1191C180.947 28.3301 181.064 28.582 181.064 28.875C181.064 29.1797 180.947 29.4375 180.713 29.6484C180.49 29.8594 180.215 29.9648 179.887 29.9648H173.523ZM180.854 25.9395C180.854 26.1621 180.754 26.3555 180.555 26.5195C180.379 26.6719 180.156 26.748 179.887 26.748H174.139C173.869 26.748 173.641 26.6719 173.453 26.5195C173.266 26.3555 173.172 26.1621 173.172 25.9395C173.172 25.7285 173.266 25.541 173.453 25.377C173.641 25.2246 173.869 25.1484 174.139 25.1484H179.887C180.156 25.1484 180.385 25.2305 180.572 25.3945C180.76 25.5469 180.854 25.7285 180.854 25.9395Z" fill="white"/>
<path d="M22.5391 0.429809C22.4071 0.786435 22.3694 1.38996 22.3034 4.03264C22.2657 5.7792 22.2091 7.32458 22.1809 7.46174C22.1526 7.60805 22.0866 8.80594 22.03 10.141C21.898 13.5061 21.6717 15.655 21.0306 19.9345C20.7855 21.5165 20.71 22.3303 20.7289 22.9887L20.7572 23.894L21.436 24.0586L22.1054 24.2323L22.7749 23.8117C23.1331 23.5831 23.5197 23.2813 23.6234 23.1441C24.0005 22.6229 24.3494 21.0318 24.6134 18.5537C24.9434 15.527 25 14.073 25 9.31802C25 4.28868 24.9057 2.79817 24.5097 1.42653C24.34 0.823012 24.0948 0.594406 23.2368 0.228635L22.7089 2.90964e-05L22.5391 0.429809Z" fill="#00C4F0"/>
<path d="M13.0731 4.60873C11.9511 4.77333 10.8669 5.02937 9.39605 5.50487C7.40667 6.14497 6.94467 6.37358 6.47326 6.96795C6.2564 7.25142 6.02069 7.6812 5.94527 7.91895C5.65299 8.83338 5.8227 10.4245 6.36954 11.7504L6.53925 12.1802L7.10496 11.6315C7.83094 10.9274 8.46264 9.69294 9.07549 7.80922C9.32063 7.05025 9.56577 6.40101 9.62234 6.36443C9.67891 6.32785 10.2163 6.30957 10.8103 6.31871C11.838 6.34614 11.9323 6.36443 12.6111 6.67534C13.6011 7.14169 14.016 7.52575 14.5345 8.49504C14.8645 9.126 15.0154 9.31802 15.1568 9.31802C15.2699 9.31802 15.7602 9.24487 16.2599 9.14428C16.7691 9.05284 17.9287 8.83338 18.8527 8.66878C19.7767 8.50419 20.5781 8.33959 20.6347 8.30301C20.927 8.12927 19.5881 6.57475 18.4284 5.74262C16.8068 4.57216 15.3831 4.2704 13.0731 4.60873Z" fill="#00C4F0"/>
<path d="M2.90927 17.9411C2.20214 18.0417 2.09843 18.0782 1.91929 18.3251C1.48559 18.9012 1.76844 20.1997 2.56042 21.361C2.73956 21.6262 2.89041 21.8731 2.89041 21.9188C2.89041 21.9645 2.99413 22.0926 3.12612 22.2114L3.36183 22.4218L4.81381 22.312C5.61522 22.2572 6.76548 22.12 7.37833 22.0194C8.0006 21.9188 8.80201 21.7999 9.16029 21.7542C9.97113 21.6445 11.3288 21.1141 11.6871 20.7575C11.9888 20.474 12.1585 19.9162 12.0359 19.6053C11.9134 19.2853 9.94285 18.5263 8.18917 18.1331C7.35004 17.9319 6.89748 17.8953 5.43608 17.8679C4.41781 17.8496 3.36183 17.8771 2.90927 17.9411Z" fill="#00C4F0"/>
<path d="M3.39013 24.406C2.07016 24.4975 2.02302 24.5158 1.77788 25.0004C1.4196 25.7228 1.36303 26.1617 1.4856 27.3231C1.57988 28.2283 1.57045 28.5575 1.43846 29.5268C1.30646 30.5236 0.872754 32.4621 0.674758 32.9285C0.580474 33.1571 0.769042 33.1388 1.00475 32.8919C1.24989 32.6267 1.51388 31.9318 1.90988 30.487C2.32473 28.9599 2.71129 28.2009 3.24871 27.8351C3.49385 27.6705 4.26697 27.3688 5.13438 27.0945C6.5675 26.6464 6.61464 26.6281 6.6995 26.3446C6.74664 26.18 6.76549 26.0337 6.74664 26.0154C6.60521 25.8783 4.95524 25.6588 3.6447 25.6039C2.25873 25.5491 2.1173 25.5308 2.37187 25.4211C3.06957 25.1376 4.03126 25.037 6.72778 24.9638C8.24575 24.9273 9.50915 24.8724 9.53744 24.8541C9.61287 24.7718 7.67062 24.4975 6.42607 24.406C5.07781 24.3146 4.79496 24.3146 3.39013 24.406Z" fill="#00C4F0"/>
<path d="M19.0601 31.3191C16.3165 33.1296 12.7148 34.5196 8.3589 35.4523C7.08607 35.7266 6.66179 35.7906 4.35184 36.0924C3.36186 36.2204 3.13558 36.2753 3.16386 36.385C3.18272 36.4581 3.30529 36.8513 3.42786 37.2445C3.55043 37.6469 3.69185 38.2413 3.74842 38.5796L3.85213 39.1831L3.36186 39.997C2.80558 40.948 1.98531 42.5665 1.50447 43.6912C0.863335 45.1909 -0.0795031 47.8885 0.00535231 47.9799C0.146778 48.1079 0.684196 47.6233 1.57989 46.5625C2.80558 45.1086 6.11495 41.8624 7.69891 40.5548C9.79202 38.8265 12.7148 36.641 15.2888 34.8762C16.9953 33.7057 18.353 32.6358 19.5598 31.502C20.4367 30.6698 20.6441 30.4321 20.4555 30.4504C20.4084 30.4504 19.7861 30.8436 19.0601 31.3191Z" fill="#00C4F0"/>
</svg>
