<svg width="100" height="100" viewBox="0 0 100 100" fill="none" xmlns="http://www.w3.org/2000/svg">
<path d="M58.3333 8.33331H16.6667C14.4565 8.33331 12.3369 9.21129 10.7741 10.7741C9.21132 12.3369 8.33334 14.4565 8.33334 16.6666V58.3333H16.6667V16.6666H58.3333V8.33331ZM75 25H33.3333C31.1232 25 29.0036 25.878 27.4408 27.4408C25.878 29.0036 25 31.1232 25 33.3333V75H33.3333V33.3333H75V25ZM83.3333 41.6666H50C47.7899 41.6666 45.6703 42.5446 44.1075 44.1074C42.5447 45.6702 41.6667 47.7898 41.6667 50V83.3333C41.6667 85.5435 42.5447 87.6631 44.1075 89.2259C45.6703 90.7887 47.7899 91.6667 50 91.6667H83.3333C87.9167 91.6667 91.6667 87.9167 91.6667 83.3333V50C91.6667 45.4166 87.9167 41.6666 83.3333 41.6666Z" fill="#00C4F0"/>
</svg>
