<svg width="100" height="100" viewBox="0 0 100 100" fill="none" xmlns="http://www.w3.org/2000/svg">
<path d="M9.11734 0.678827C4.89731 2.29763 2.03186 5.22191 0.625189 9.34723C0.208396 10.4961 0 15.4047 0 23.5509C0 36.9713 0.104198 37.5979 2.86545 37.5979C5.4704 37.5979 5.7309 36.3446 5.7309 23.0287C5.7309 11.8015 5.8351 10.7049 6.77288 9.13836C9.01314 5.483 6.77288 5.69188 50.6403 5.84854L90.1314 6.0052L92.0591 7.98953L94.0388 9.92165L94.2993 29.5039C94.4556 41.5143 94.7682 49.2428 95.0808 49.5039C96.2791 50.6527 97.8942 50.7049 98.9882 49.6083C100.082 48.5117 100.082 48.1984 99.926 29.0861C99.7697 10.3394 99.7176 9.60833 98.6756 7.57178C97.1127 4.6475 94.9766 2.66316 91.9549 1.25324L89.3499 -2.44745e-05L50.0151 0.0521948C21.2043 0.0521948 10.2635 0.261072 9.11734 0.678827Z" fill="#00C4F0"/>
<path d="M13.1289 12.1149C10.7845 13.2637 10.9929 17.2324 13.4936 18.2767C15.2129 18.9556 16.828 18.3812 17.7137 16.7102C18.5472 15.1958 18.3388 14.1514 16.9322 12.7937C15.5776 11.3838 14.9524 11.2794 13.1289 12.1149Z" fill="#00C4F0"/>
<path d="M23.184 12.7937C21.7774 14.1514 21.569 15.1958 22.4026 16.7102C23.2882 18.3812 24.9033 18.9556 26.6226 18.2767C29.2275 17.1801 29.3317 13.2637 26.831 12.1149C24.9554 11.2271 24.5907 11.3316 23.184 12.7937Z" fill="#00C4F0"/>
<path d="M34.9064 11.8538C33.6039 12.3237 32.8224 13.6814 32.8224 15.4569C32.8224 17.2846 33.4476 18.0156 35.5316 18.5378C36.6257 18.7989 37.2508 18.59 38.2407 17.5457C39.96 15.8746 39.96 14.4125 38.2928 12.7937C37.0424 11.4882 36.4173 11.3316 34.9064 11.8538Z" fill="#00C4F0"/>
<path d="M45.743 13.8382C45.3262 14.8304 45.3262 15.457 45.743 16.4492L46.3681 17.7546H66.5826C81.5871 17.7546 86.9533 17.598 87.4222 17.128C88.2037 16.3447 88.2037 13.9426 87.4222 13.1593C86.9533 12.6894 81.5871 12.5327 66.5826 12.5327H46.3681L45.743 13.8382Z" fill="#00C4F0"/>
<path d="M11.7744 29.3472C11.0451 30.3916 10.9409 34.0469 10.9409 58.7467C10.9409 83.4464 11.0451 87.1018 11.7744 88.1462C12.5559 89.295 12.608 89.295 29.1755 89.295C45.743 89.295 45.7951 89.295 46.5766 88.1462C47.306 87.1018 47.4102 83.4464 47.4102 58.7467C47.4102 34.0469 47.306 30.3916 46.5766 29.3472C45.7951 28.1984 45.743 28.1984 29.1755 28.1984C12.608 28.1984 12.5559 28.1984 11.7744 29.3472ZM41.5751 58.59L41.6793 83.5509H29.1755H16.6718V58.8511C16.6718 45.2219 16.776 33.9947 16.9323 33.8381C17.0885 33.6814 22.6631 33.577 29.3318 33.6292L41.4188 33.6814L41.5751 58.59Z" fill="#00C4F0"/>
<path d="M53.4536 29.3472C52.7764 30.3394 52.6201 32.4804 52.6201 42.0365C52.6201 51.5926 52.7764 53.7336 53.4536 54.7258C54.2351 55.8746 54.2872 55.8746 70.8547 55.8746C87.4222 55.8746 87.4743 55.8746 88.2558 54.7258C89.5062 53.0026 89.5062 31.0705 88.2558 29.3472C87.4743 28.1984 87.4222 28.1984 70.8547 28.1984C54.2872 28.1984 54.2351 28.1984 53.4536 29.3472ZM83.2543 41.8799L83.4106 50.1305H70.8547H58.351V42.141C58.351 37.7023 58.5073 33.9947 58.6635 33.7859C58.8198 33.6292 64.3944 33.5248 71.011 33.577L83.098 33.6814L83.2543 41.8799Z" fill="#00C4F0"/>
<path d="M0.781452 44.3864C-1.09411 46.4752 1.14615 49.6084 3.8032 48.6162C5.52247 47.9373 6.04346 46.2141 5.00148 44.6475C3.9595 43.081 2.08393 42.9765 0.781452 44.3864Z" fill="#00C4F0"/>
<path d="M1.0941 55.1958C-0.0520819 56.1358 -0.0520819 56.2924 0.104215 73.3681C0.260513 89.1906 0.364711 90.7572 1.25039 92.6371C2.55287 95.248 5.00153 97.7023 7.60648 99.0078C9.58625 99.9478 11.1492 100 50.0151 100C88.881 100 90.444 99.9478 92.4238 99.0078C95.0287 97.7023 97.4774 95.248 98.7798 92.6371C99.6655 90.7572 99.7697 89.1906 99.926 74.1514C100.082 57.859 100.082 57.7023 98.9361 56.7624C97.4774 55.6136 96.6438 55.6136 95.3413 56.9191C94.3514 57.9112 94.2993 58.6423 94.2993 73.7337C94.2993 91.1749 94.2993 91.2272 90.8608 93.5248C89.402 94.4648 87.6827 94.517 50.0151 94.517C12.3475 94.517 10.6282 94.4648 9.16945 93.5248C8.38797 93.0026 7.24179 91.8538 6.7208 91.0705C5.83511 89.6606 5.73091 88.3551 5.73091 72.9504C5.73091 57.0757 5.67882 56.3446 4.68893 55.3525C3.38646 54.047 2.55287 54.047 1.0941 55.1958Z" fill="#00C4F0"/>
<path d="M53.4536 62.7676C52.7764 63.7597 52.6201 65.9007 52.6201 75.4569C52.6201 85.013 52.7764 87.154 53.4536 88.1462C54.2351 89.295 54.2872 89.295 70.8547 89.295C87.4222 89.295 87.4743 89.295 88.2558 88.1462C89.5062 86.4229 89.5062 64.4908 88.2558 62.7676C87.4743 61.6187 87.4222 61.6187 70.8547 61.6187C54.2872 61.6187 54.2351 61.6187 53.4536 62.7676ZM83.2543 75.3002L83.4106 83.5509H70.8547H58.351V75.5613C58.351 71.1227 58.4552 67.4151 58.6635 67.2584C58.8198 67.1018 64.3423 66.9973 71.011 67.0496L83.098 67.1018L83.2543 75.3002Z" fill="#00C4F0"/>
</svg>
