<svg width="40" height="40" viewBox="0 0 40 40" fill="none" xmlns="http://www.w3.org/2000/svg">
<path d="M20.725 23.8835L4.8625 13.7889C4.04244 13.2465 3.46816 12.4039 3.26333 11.4423C3.0585 10.4807 3.2395 9.47707 3.76737 8.64762C4.29523 7.81817 5.12773 7.2292 6.08559 7.00754C7.04345 6.78588 8.05005 6.94926 8.88863 7.4625L20.5261 14.8679L30.975 7.5535C31.7902 7.00107 32.79 6.79149 33.7585 6.97001C34.7269 7.14853 35.5863 7.70084 36.1509 8.50763C36.7156 9.31442 36.9403 10.311 36.7764 11.282C36.6125 12.253 36.0732 13.1206 35.275 13.6974L20.725 23.8835Z" fill="#EA4435"/>
<path d="M34.3751 33.1259H29.3751L29.3751 10.6259C29.3751 9.63131 29.7702 8.67748 30.4735 7.97422C31.1767 7.27096 32.1306 6.87587 33.1251 6.87587V6.87587C34.1197 6.87587 35.0735 7.27096 35.7768 7.97422C36.48 8.67748 36.8751 9.63131 36.8751 10.6259V30.6259C36.8751 31.2889 36.6117 31.9248 36.1429 32.3936C35.674 32.8625 35.0382 33.1259 34.3751 33.1259V33.1259Z" fill="#00AC47"/>
<path d="M36.8202 10.082C36.8092 10.007 36.8101 9.93037 36.7945 9.8555C36.7705 9.74075 36.7259 9.63475 36.6916 9.524C36.6584 9.39724 36.6184 9.27235 36.5719 9.14987C36.5469 9.0905 36.5084 9.03837 36.48 8.98062C36.4022 8.814 36.3122 8.65335 36.2107 8.5C36.1607 8.42737 36.0982 8.3655 36.043 8.29675C35.9482 8.1718 35.8457 8.05286 35.7361 7.94062C35.653 7.85975 35.5582 7.79212 35.4679 7.71925C35.3718 7.6369 35.2717 7.55942 35.1679 7.48712C35.0687 7.42237 34.9602 7.3725 34.8554 7.31725C34.7449 7.25962 34.6366 7.19687 34.5216 7.15087C34.4105 7.10612 34.292 7.07762 34.1759 7.0435C34.0597 7.00937 33.9442 6.9685 33.825 6.94637C33.6773 6.92264 33.5282 6.90762 33.3787 6.90137C33.2839 6.89475 33.1899 6.87812 33.0946 6.87887C32.9178 6.88403 32.7415 6.90178 32.5672 6.932C32.4969 6.9425 32.426 6.94162 32.3561 6.95612C32.1203 7.02819 31.885 7.10236 31.6505 7.17862C31.5861 7.20612 31.5297 7.247 31.4674 7.278C30.8326 7.5742 30.2972 8.0479 29.9259 8.64186C29.5546 9.23583 29.3632 9.92462 29.375 10.625V17.8275L35.275 13.6971C35.8544 13.3083 36.3086 12.7599 36.5828 12.1182C36.857 11.4766 36.9393 10.7692 36.8199 10.0817L36.8202 10.082Z" fill="#FFBA00"/>
<path d="M6.875 6.875C7.86956 6.875 8.82339 7.27009 9.52665 7.97335C10.2299 8.67661 10.625 9.63044 10.625 10.625V33.125H5.625C4.96196 33.125 4.32607 32.8616 3.85723 32.3928C3.38839 31.9239 3.125 31.288 3.125 30.625V10.625C3.125 9.63044 3.52009 8.67661 4.22335 7.97335C4.92661 7.27009 5.88044 6.875 6.875 6.875V6.875Z" fill="#4285F4"/>
<path d="M3.17987 10.082C3.19087 10.007 3.19 9.93037 3.20562 9.8555C3.22962 9.74075 3.27425 9.63475 3.3085 9.524C3.3417 9.39728 3.38167 9.27244 3.42825 9.15C3.45325 9.09063 3.49175 9.0385 3.52025 8.98075C3.59797 8.81406 3.68797 8.65336 3.7895 8.5C3.8395 8.42738 3.902 8.3655 3.95725 8.29675C4.05202 8.1718 4.15447 8.05286 4.264 7.94063C4.34712 7.85975 4.44187 7.79212 4.53237 7.71925C4.62839 7.63686 4.72852 7.55939 4.83237 7.48712C4.9315 7.42237 5.04 7.3725 5.14487 7.31725C5.25325 7.25595 5.36464 7.20013 5.47862 7.15C5.58987 7.10525 5.70837 7.07675 5.82437 7.04263C5.94037 7.0085 6.056 6.96762 6.17525 6.9455C6.32299 6.92177 6.47199 6.90675 6.6215 6.9005C6.7165 6.89388 6.81037 6.87725 6.90562 6.878C7.08245 6.88315 7.25869 6.9009 7.433 6.93113C7.50337 6.94163 7.57425 6.94075 7.64425 6.95525C7.76524 6.98608 7.88457 7.02313 8.00175 7.06625C8.11958 7.09757 8.23577 7.13478 8.34987 7.17775C8.41412 7.20525 8.4705 7.24613 8.533 7.27713C8.69503 7.35325 8.85135 7.44098 9.00075 7.53963C9.50154 7.88349 9.91111 8.34408 10.1941 8.88162C10.4771 9.41917 10.625 10.0175 10.625 10.625V17.8275L4.725 13.6974C4.14572 13.3084 3.69152 12.76 3.41731 12.1184C3.1431 11.4768 3.06063 10.7695 3.17987 10.082V10.082Z" fill="#C52528"/>
</svg>
