<svg width="100" height="100" viewBox="0 0 100 100" fill="none" xmlns="http://www.w3.org/2000/svg">
<path d="M0 14.2544V28.5088H32.3529H64.7059V14.2544V1.69203e-05H32.3529H0V14.2544Z" fill="#00C4F0"/>
<path d="M71.9457 14.2544V28.5088H85.9729H100V14.2544V1.69203e-05H85.9729H71.9457V14.2544Z" fill="#00C4F0"/>
<path d="M0.226262 36.0965C0.0905157 36.4035 0.0452668 42.8509 0.0905157 50.4386L0.226262 64.2544L14.1629 64.386L28.0543 64.4737V50V35.5263H14.2534C3.52943 35.5263 0.362009 35.6579 0.226262 36.0965Z" fill="#00C4F0"/>
<path d="M35.4469 36.0965C35.3111 36.3597 35.2659 42.8509 35.3111 50.4386L35.4469 64.2544H67.5736H99.7002V50V35.7456L67.6641 35.614C42.1889 35.5263 35.5826 35.614 35.4469 36.0965Z" fill="#00C4F0"/>
<path d="M0 85.7456V100H32.3529H64.7059V85.7456V71.4912H32.3529H0V85.7456Z" fill="#00C4F0"/>
<path d="M71.9457 85.7456V100H85.9729H100V85.7456V71.4912H85.9729H71.9457V85.7456Z" fill="#00C4F0"/>
</svg>
