<svg width="100" height="100" viewBox="0 0 100 100" fill="none" xmlns="http://www.w3.org/2000/svg">
<path d="M50 60.1968C55.0288 60.1968 59.1054 55.6315 59.1054 50C59.1054 44.3685 55.0288 39.8032 50 39.8032C44.9712 39.8032 40.8946 44.3685 40.8946 50C40.8946 55.6315 44.9712 60.1968 50 60.1968Z" fill="#00C4F0"/>
<path d="M84.5847 33.1843C82.8275 32.4687 80.9904 31.7531 79.0735 31.127C79.5527 28.9803 79.9521 26.8336 80.2716 24.7764C81.9489 12.9696 80.1118 4.65116 75 1.43113C73.4824 0.447227 71.8051 0 69.8882 0C64.2971 0 57.1885 4.65116 50 12.4329C42.8115 4.65116 35.7029 0 30.1118 0C28.1949 0 26.5176 0.447227 25 1.43113C19.8882 4.74061 18.0511 13.059 19.7284 24.7764C20.0479 26.8336 20.4473 28.9803 20.9265 31.127C19.0096 31.7531 17.1725 32.3792 15.4153 33.1843C5.43131 37.4776 0 43.381 0 50C0 56.619 5.51118 62.5224 15.4153 66.8157C17.1725 67.5313 19.0096 68.2469 20.9265 68.873C20.4473 71.0197 20.0479 73.1664 19.7284 75.2236C18.0511 87.0304 19.8882 95.3488 25 98.5689C26.5176 99.5528 28.1949 100 30.1118 100C35.7827 100 42.8914 95.3488 50 87.5671C57.1885 95.3488 64.2971 100 69.8882 100C71.8051 100 73.4824 99.5528 75 98.5689C80.1118 95.2594 81.9489 86.941 80.2716 75.2236C79.9521 73.1664 79.5527 71.0197 79.0735 68.873C80.9904 68.2469 82.8275 67.6208 84.5847 66.8157C94.5687 62.5224 100 56.619 100 50C100 43.381 94.5687 37.4776 84.5847 33.1843ZM72.7636 5.9034C76.0383 8.05009 77.1566 14.6691 75.7987 24.0608C75.5591 25.9392 75.1597 27.907 74.6805 29.9642C70.5272 28.8909 66.1342 28.1753 61.5016 27.7281C58.7859 23.4347 55.9904 19.5886 53.1949 16.1002C59.1054 9.57066 65.0958 5.09839 69.9681 5.09839C71.0064 5.09839 71.9649 5.36673 72.7636 5.9034V5.9034ZM63.8179 58.9445C62.3802 61.8068 60.7029 64.6691 58.9457 67.5313C55.9904 67.7996 53.0351 67.8891 50 67.8891C46.885 67.8891 43.9297 67.7996 41.0543 67.5313C39.2971 64.6691 37.6997 61.8068 36.262 58.9445C34.7444 55.9928 33.3067 52.9517 32.0288 50C33.3067 47.0483 34.7444 44.0072 36.262 41.0555C37.6997 38.1932 39.377 35.3309 41.1342 32.4687C44.0895 32.2004 47.0447 32.1109 50.0799 32.1109C53.1949 32.1109 56.1502 32.2004 59.0256 32.4687C60.7828 35.3309 62.3802 38.1932 63.8179 41.0555C65.3355 44.0072 66.7732 47.0483 68.0511 50C66.6933 52.9517 65.3355 55.9034 63.8179 58.9445ZM70.4473 55.9928C71.6454 59.1234 72.6038 62.1646 73.4824 65.2057C70.7668 65.9213 67.8914 66.458 64.8562 66.9052C65.8147 65.2057 66.853 63.4168 67.7316 61.5385C68.6901 59.6601 69.5687 57.7818 70.4473 55.9928ZM50 80.2326C48.0831 77.907 46.246 75.4025 44.4888 72.8086C46.3259 72.898 48.1629 72.9875 50 72.9875C51.8371 72.9875 53.6741 72.898 55.5112 72.8086C53.754 75.4025 51.9169 77.907 50 80.2326ZM35.1438 66.8157C32.1086 66.3685 29.2332 65.8318 26.5176 65.1163C27.3962 62.1646 28.3546 59.034 29.5527 55.9034C30.4313 57.6923 31.3099 59.5707 32.2684 61.3596C33.2268 63.3274 34.1853 65.0268 35.1438 66.8157V66.8157ZM29.5527 44.0072C28.3546 40.8766 27.3962 37.8354 26.5176 34.7943C29.2332 34.0787 32.1086 33.542 35.1438 33.0948C34.1853 34.7943 33.147 36.5832 32.2684 38.4615C31.3099 40.3399 30.4313 42.2182 29.5527 44.0072V44.0072ZM50 19.7674C51.9169 22.093 53.754 24.5975 55.5112 27.1914C53.6741 27.102 51.8371 27.0125 50 27.0125C48.1629 27.0125 46.3259 27.102 44.4888 27.1914C46.246 24.5975 48.0831 22.093 50 19.7674V19.7674ZM67.7316 38.551L64.8562 33.1843C67.8914 33.6315 70.7668 34.1682 73.4824 34.8837C72.6038 37.8354 71.6454 40.966 70.4473 44.0966C69.5687 42.2182 68.6901 40.3399 67.7316 38.551V38.551ZM24.2013 24.0608C22.8435 14.6691 23.9617 8.05009 27.2364 5.9034C28.0351 5.36673 28.9936 5.09839 30.0319 5.09839C34.8243 5.09839 40.8147 9.48122 46.8051 16.1002C44.0096 19.4991 41.2141 23.4347 38.4984 27.7281C33.8658 28.1753 29.4728 28.9803 25.3195 29.9642C24.8403 27.907 24.5208 25.9392 24.2013 24.0608ZM4.47284 50C4.47284 45.7961 9.02556 41.3238 17.0128 38.0143C18.6102 37.2987 20.3674 36.6726 22.1246 36.136C23.4026 40.6082 25 45.3488 26.9169 50.0894C25 54.8301 23.3227 59.4812 22.1246 63.9535C11.1022 60.3757 4.47284 55.0089 4.47284 50V50ZM27.2364 94.0966C23.9617 91.9499 22.8435 85.3309 24.2013 75.9392C24.4409 74.0608 24.8403 72.093 25.3195 70.0358C29.4728 71.1091 33.8658 71.8247 38.4984 72.2719C41.2141 76.5653 44.0096 80.4114 46.8051 83.8998C40.8946 90.4293 34.9042 94.9016 30.0319 94.9016C28.9936 94.9016 28.0351 94.6333 27.2364 94.0966ZM75.7987 75.9392C77.1566 85.3309 76.0383 91.9499 72.7636 94.0966C71.9649 94.6333 71.0064 94.9016 69.9681 94.9016C65.1757 94.9016 59.1853 90.5188 53.1949 83.8998C55.9904 80.5009 58.7859 76.5653 61.5016 72.2719C66.1342 71.8247 70.5272 71.0197 74.6805 70.0358C75.1597 72.093 75.4792 74.0608 75.7987 75.9392V75.9392ZM82.9872 61.9857C81.3898 62.7013 79.6326 63.3274 77.8754 63.864C76.5974 59.3918 75 54.6512 73.0831 49.9106C75 45.1699 76.6773 40.5188 77.8754 36.0465C88.8978 39.6243 95.5272 44.9911 95.5272 50C95.5272 54.2039 90.8946 58.6762 82.9872 61.9857V61.9857Z" fill="#00C4F0"/>
</svg>
