<svg width="100" height="100" viewBox="0 0 100 100" fill="none" xmlns="http://www.w3.org/2000/svg">
<path d="M50.7285 59.7125C48.6837 60.5025 46.4433 61.5321 41.9584 63.602C40.2579 64.4064 38.4809 65.2107 36.8272 65.9686C36.7124 65.8721 36.5934 65.7505 36.4786 65.6504C27.6064 57.6783 11.1969 52.0478 11.8941 41.3409C12.1534 37.4406 13.7476 27.202 43.408 14.7684C67.8182 4.65134 87.2418 7.45409 90.5959 13.6709C95.4168 22.5332 80.1848 39.0243 54.9754 41.416C52.1853 41.8919 49.3038 41.8344 46.5436 41.2478C43.7835 40.6612 41.2155 39.5604 39.0293 38.0269C37.6944 36.8079 37.4946 36.7364 37.0015 36.9795C36.1895 37.337 36.7124 38.4416 37.0015 39.0744C37.9631 40.5385 39.264 41.8256 40.8274 42.8596C42.3907 43.8937 44.1847 44.6536 46.1032 45.0946C56.0238 46.8978 66.3672 46.0362 75.6743 42.6314C90.953 37.6587 102.882 23.8344 99.3874 12.2445C95.8801 0.493696 72.6858 -3.38153 50.7413 3.1749C36.9984 7.06941 24.3013 13.2001 13.3735 21.2176C1.2832 30.7269 -0.629822 38.9922 0.152393 42.4527C2.96666 54.7397 23.1087 62.7369 31.1859 68.6605C30.7608 68.8572 30.4037 69.018 30.0848 69.1718C26.0547 70.8556 10.691 77.6086 6.86073 84.7513C2.51179 92.845 7.55792 98.6471 10.8908 99.4264C15.9135 100.438 21.1866 100.106 25.9736 98.4751C30.7606 96.8446 34.8227 93.9977 37.5924 90.3318C39.9445 87.2919 41.3888 83.8194 41.8025 80.2094C42.2163 76.5994 41.5872 72.9588 39.9688 69.5972C40.9237 68.9567 41.942 68.3862 43.0126 67.8919C45.0702 66.8695 47.03 65.8614 48.7687 65.082C54.722 62.7371 61.2188 61.5297 67.7927 61.5464C81.592 62.912 84.317 70.1513 83.7941 73.2007C83.5495 74.2826 83.0321 75.3079 82.2768 76.2076C81.5215 77.1073 80.5458 77.8605 79.4154 78.4165C78.4589 78.9278 78.14 79.0994 78.2251 79.464C78.3398 80.0002 78.8032 79.9752 79.6152 79.8787C81.6884 79.3277 83.515 78.2621 84.8549 76.8221C86.1948 75.3821 86.9854 73.6349 87.1227 71.8101C87.5479 64.6602 79.4409 56.8168 65.089 56.8883C60.7915 56.8945 56.5371 57.6074 52.565 58.9868C51.9273 59.2084 51.3081 59.4467 50.7073 59.7018L50.7285 59.7125ZM30.2166 87.7364C25.6339 91.9298 19.2571 93.5135 16.5024 92.1729C13.5266 90.7429 14.7041 84.5404 20.3284 80.1039C23.6595 77.58 27.2598 75.3195 31.0839 73.3509C31.7513 72.9934 32.7376 72.5215 33.9237 71.9209C34.1277 71.8244 34.2425 71.7743 34.2425 71.7743L34.9397 71.4168C35.9428 74.245 36.034 77.2465 35.2041 80.114C34.3742 82.9816 32.653 85.6122 30.2166 87.7364V87.7364Z" fill="#00C4F0"/>
</svg>
