<svg width="40" height="40" viewBox="0 0 40 40" fill="none" xmlns="http://www.w3.org/2000/svg">
<path fill-rule="evenodd" clip-rule="evenodd" d="M0 20C0 8.9543 8.9543 0 20 0V0C31.0457 0 40 8.9543 40 20V20C40 31.0457 31.0457 40 20 40V40C8.9543 40 0 31.0457 0 20V20Z" fill="#398EDD"/>
<path d="M29.0845 25.8922C28.3763 25.3329 27.6184 24.8309 26.8727 24.318C25.3857 23.2943 24.0267 23.2149 22.9169 24.8618C22.2936 25.7863 21.4222 25.8271 20.5098 25.4212C17.9958 24.3036 16.0542 22.5817 14.918 20.0764C14.415 18.9678 14.4216 17.975 15.5987 17.1907C16.2219 16.7758 16.8496 16.2861 16.7989 15.3793C16.7338 14.1979 13.8083 10.2508 12.6534 9.83492C12.1756 9.66279 11.6991 9.67382 11.2126 9.83386C8.5044 10.7263 7.38249 12.9105 8.45694 15.4962C11.6615 23.2105 17.303 28.5816 25.0669 31.859V31.859C25.8196 32.1763 26.6854 32.243 27.4545 31.9681C28.8659 31.4637 30.2223 30.167 30.6873 28.8784C31.2643 27.2855 30.0464 26.6523 29.0845 25.8922Z" fill="#2E373C"/>
<path d="M20.3786 10.627C26.0554 11.4831 28.6731 14.1294 29.3956 19.7345C29.4629 20.2519 29.2654 21.0318 30.0189 21.0461C30.8066 21.0605 30.6168 20.2938 30.6234 19.7753C30.6827 15.0502 26.9267 10.6327 22.2272 9.62941C21.121 9.39325 19.292 8.91866 19.2258 10.0478V10.0478C19.1917 10.6568 19.9075 10.5563 20.3786 10.627Z" fill="#2E373C"/>
<path d="M21.4883 12.1636C20.9423 12.0996 20.222 11.847 20.0939 12.5895C19.9605 13.3694 20.7635 13.29 21.2798 13.4035C24.7856 14.1713 26.0068 15.4223 26.5837 18.8321C26.6676 19.3296 26.501 20.103 27.3626 19.9749C28.0013 19.8801 27.7707 19.216 27.8237 18.8288C27.8524 15.5558 24.9918 12.5763 21.4883 12.1636Z" fill="#2E373C"/>
<path d="M21.8105 14.8409C21.4464 14.8498 21.0879 14.8885 20.9544 15.2701C20.7536 15.8404 21.1761 15.9772 21.6074 16.0446C23.0459 16.2706 23.8027 17.1024 23.9461 18.5078C23.9848 18.8895 24.2318 19.1984 24.608 19.1554C25.1286 19.0947 25.1761 18.6402 25.1607 18.2077C25.186 16.628 23.3648 14.8023 21.8105 14.8409Z" fill="#2E373C"/>
<path d="M28.6289 26.3983C27.9206 25.839 27.1628 25.337 26.4171 24.8242C24.9301 23.8004 23.5711 23.721 22.4613 25.368C21.838 26.2924 20.9666 26.3332 20.0542 25.9273C17.5402 24.8097 15.5986 23.0878 14.4624 20.5826C13.9594 19.474 13.966 18.4811 15.1431 17.6968C15.7663 17.282 16.394 16.7922 16.3433 15.8854C16.2782 14.704 13.3526 10.7569 12.1978 10.3411C11.72 10.1689 11.2435 10.1799 10.7569 10.34C8.0488 11.2324 6.92689 13.4166 8.00129 16.0023C11.2059 23.7166 16.8474 29.0877 24.6113 32.3651V32.3651C25.364 32.6824 26.2297 32.7491 26.9988 32.4742C28.4102 31.9698 29.7667 30.6732 30.2317 29.3845C30.8087 27.7916 29.5908 27.1584 28.6289 26.3983Z" fill="white"/>
<path d="M19.923 11.1331C25.5998 11.9892 28.2174 14.6355 28.94 20.2406C29.0073 20.758 28.8098 21.5379 29.5633 21.5522C30.351 21.5666 30.1612 20.7999 30.1678 20.2814C30.2271 15.5563 26.4711 11.1388 21.7716 10.1356C20.6654 9.8994 18.8364 9.42478 18.7702 10.554V10.554C18.736 11.1629 19.4519 11.0624 19.923 11.1331Z" fill="white"/>
<path d="M21.0327 12.6697C20.4866 12.6057 19.7664 12.3532 19.6383 13.0956C19.5049 13.8755 20.3079 13.7961 20.8242 13.9097C24.33 14.6774 25.5512 15.9284 26.1281 19.3382C26.212 19.8357 26.0453 20.6091 26.9069 20.4811C27.5457 20.3862 27.3151 19.7221 27.368 19.3349C27.3968 16.0619 24.5362 13.0824 21.0327 12.6697Z" fill="white"/>
<path d="M21.3549 15.3471C20.9908 15.3559 20.6323 15.3946 20.4988 15.7762C20.298 16.3465 20.7205 16.4833 21.1518 16.5507C22.5903 16.7767 23.347 17.6085 23.4905 19.0139C23.5291 19.3956 23.7762 19.7045 24.1524 19.6615C24.673 19.6008 24.7205 19.1463 24.7051 18.7138C24.7304 17.1342 22.9092 15.3085 21.3549 15.3471Z" fill="white"/>
<rect x="0.5" y="0.5" width="39" height="39" rx="19.5" stroke="#398EDD"/>
</svg>
