<svg width="40" height="40" viewBox="0 0 40 40" fill="none" xmlns="http://www.w3.org/2000/svg">
<g clip-path="url(#clip0_1_2)">
<path d="M3.8147e-06 20.0002C3.8147e-06 31.0459 8.95424 40.0002 20 40.0002C31.0458 40.0002 40 31.0459 40 20.0002C40 8.9544 31.0458 0.000166893 20 0.000166893C8.95424 0.000166893 3.8147e-06 8.9544 3.8147e-06 20.0002" fill="url(#paint0_linear_1_2)"/>
<path d="M13.5381 21.4619L15.911 28.0297C15.911 28.0297 16.2076 28.6439 16.5254 28.6439C16.8432 28.6439 21.5678 23.7286 21.5678 23.7286L26.822 13.5803L13.6229 19.7668L13.5381 21.4619Z" fill="#C8DAEA"/>
<path d="M16.6843 23.1463L16.2287 27.9873C16.2287 27.9873 16.038 29.4703 17.521 27.9873C19.0041 26.5042 20.4236 25.3602 20.4236 25.3602" fill="#A9C6D8"/>
<path d="M13.5809 21.6964L8.70034 20.1061C8.70034 20.1061 8.1178 19.8697 8.30492 19.3329C8.34356 19.2222 8.42136 19.1281 8.65441 18.9656C9.73611 18.2119 28.672 11.4056 28.672 11.4056C28.672 11.4056 29.2068 11.2256 29.5229 11.3453C29.6673 11.4 29.7595 11.4619 29.8371 11.6876C29.8654 11.7698 29.8817 11.9446 29.8795 12.1185C29.8778 12.2439 29.8625 12.36 29.8514 12.5422C29.7361 14.4032 26.2853 28.291 26.2853 28.291C26.2853 28.291 26.0788 29.1037 25.339 29.1314C25.0692 29.1415 24.7417 29.0868 24.3502 28.75C22.8985 27.5012 17.8803 24.1288 16.7717 23.3873C16.709 23.3456 16.6914 23.2912 16.6807 23.2381C16.6651 23.1602 16.7485 23.0629 16.7485 23.0629C16.7485 23.0629 25.4861 15.2959 25.7187 14.481C25.7366 14.4178 25.669 14.3866 25.5773 14.4139C24.997 14.6275 14.9366 20.98 13.8264 21.6817C13.7615 21.7227 13.5795 21.6963 13.5795 21.6963" fill="white"/>
</g>
<defs>
<linearGradient id="paint0_linear_1_2" x1="20" y1="40" x2="20" y2="-1.64484e-06" gradientUnits="userSpaceOnUse">
<stop stop-color="#1D93D2"/>
<stop offset="1" stop-color="#38B0E3"/>
</linearGradient>
<clipPath id="clip0_1_2">
<rect width="40" height="40" fill="white"/>
</clipPath>
</defs>
</svg>
