<svg width="40" height="40" viewBox="0 0 40 40" fill="none" xmlns="http://www.w3.org/2000/svg">
<path d="M20 40C31.0457 40 40 31.0457 40 20C40 8.95431 31.0457 0 20 0C8.95431 0 0 8.95431 0 20C0 31.0457 8.95431 40 20 40Z" fill="#4D76A1"/>
<path fill-rule="evenodd" clip-rule="evenodd" d="M19.2445 28.7718H20.8143C20.8143 28.7718 21.2885 28.7197 21.5305 28.4588C21.7534 28.2192 21.7462 27.7693 21.7462 27.7693C21.7462 27.7693 21.7156 25.6629 22.6931 25.3528C23.6568 25.0472 24.8943 27.3885 26.2059 28.2887C27.1978 28.97 27.9514 28.8206 27.9514 28.8206L31.4585 28.7718C31.4585 28.7718 33.2932 28.6588 32.4233 27.2163C32.352 27.0983 31.9166 26.1492 29.8157 24.1991C27.6167 22.158 27.9112 22.4881 30.5601 18.9575C32.1733 16.8074 32.8183 15.4947 32.6168 14.9324C32.4247 14.397 31.2382 14.5385 31.2382 14.5385L27.2894 14.5631C27.2894 14.5631 26.9967 14.5232 26.7796 14.6529C26.5674 14.7802 26.4309 15.0768 26.4309 15.0768C26.4309 15.0768 25.8059 16.7407 24.9724 18.1557C23.214 21.1416 22.511 21.2992 22.2236 21.1138C21.5551 20.6817 21.722 19.3779 21.722 18.4516C21.722 15.5581 22.1609 14.3517 20.8674 14.0394C20.4382 13.9356 20.1223 13.8672 19.0246 13.8561C17.6156 13.8415 16.423 13.8604 15.7478 14.1912C15.2986 14.4112 14.952 14.9014 15.1631 14.9296C15.4241 14.9645 16.0152 15.089 16.3286 15.5157C16.7332 16.0662 16.719 17.3026 16.719 17.3026C16.719 17.3026 16.9514 20.7088 16.176 21.132C15.6437 21.4222 14.9135 20.8296 13.3459 18.1208C12.5427 16.7332 11.9363 15.1995 11.9363 15.1995C11.9363 15.1995 11.8193 14.9128 11.6108 14.7595C11.3576 14.5738 11.004 14.5146 11.004 14.5146L7.25159 14.5392C7.25159 14.5392 6.68829 14.5549 6.48151 14.7998C6.29755 15.0177 6.4669 15.4683 6.4669 15.4683C6.4669 15.4683 9.40461 22.3413 12.7309 25.8048C15.781 28.9804 19.2445 28.7718 19.2445 28.7718Z" fill="white"/>
</svg>
