<svg width="100" height="100" viewBox="0 0 100 100" fill="none" xmlns="http://www.w3.org/2000/svg">
<path d="M96.9185 77.0635L51.9722 100V82.1349L79.9348 68.254L96.9185 77.0635ZM100 74.5556V26.627L83.5534 35.1984V66L99.9912 74.5476L100 74.5556ZM3.08153 77.0635L47.9838 99.9841V82.1349L20.0123 68.254L3.08153 77.0635ZM0 74.5556V26.627L16.4466 35.1984V66L0 74.5556ZM1.92816 23.5238L48.0278 0V17.2698L18.4892 31.9127L18.2515 32.0317L1.92816 23.5238ZM98.0542 23.5238L51.9722 0V17.2698L81.5108 31.9048L81.7485 32.0238L98.0718 23.5238H98.0542Z" fill="#00C4F0"/>
<path d="M48.0278 78.0714L20.3909 64.365V37.2381L48.0278 51.5873V78.0714ZM51.9722 78.0714L79.6091 64.3809V37.2381L51.9722 51.5873V78.0714ZM22.2662 34.127L50 20.3651L77.7337 34.127L50 48.5397L22.2662 34.127Z" fill="#00C4F0"/>
</svg>
